<svg width="44" height="45" viewBox="0 0 44 45" fill="none" xmlns="http://www.w3.org/2000/svg">
<g clip-path="url(#clip0_20948_41)">
<path d="M43.3206 4.47006C42.7831 3.79784 41.9781 3.42773 41.0536 3.42773C40.5511 3.42773 40.0187 3.53588 39.4715 3.74977L2.22633 18.2905C0.249764 19.062 -0.0164409 20.2197 0.000679409 20.8411C0.0177997 21.4625 0.347786 22.603 2.36396 23.2591C2.37605 23.2629 2.38813 23.2666 2.40022 23.2701L10.1259 25.5312L14.3039 37.7501C14.8736 39.4159 16.1522 40.4506 17.6414 40.4506C18.5803 40.4506 19.5038 40.0483 20.3121 39.2875L25.0907 34.7875L32.0218 40.4953C32.0225 40.4959 32.0235 40.4963 32.0241 40.497L32.0899 40.5512C32.096 40.556 32.1024 40.5612 32.1084 40.566C32.8788 41.1771 33.7197 41.4998 34.5412 41.5002H34.5415C36.1465 41.5002 37.4244 40.2851 37.7967 38.4051L43.8993 7.58709C44.1444 6.3501 43.9389 5.24323 43.3206 4.47006V4.47006ZM12.7104 25.1017L27.6155 17.3141L18.3346 27.3999C18.1825 27.565 18.0747 27.7673 18.0217 27.9873L16.2321 35.401L12.7104 25.1017ZM18.5655 37.3477C18.5038 37.4057 18.4417 37.4575 18.3796 37.5053L20.0399 30.6278L23.0601 33.1152L18.5655 37.3477ZM41.3725 7.06352L35.27 37.8819C35.2112 38.1768 35.0236 38.8631 34.5412 38.8631C34.3028 38.8631 34.0034 38.7302 33.6969 38.4889L25.843 32.0214C25.842 32.0203 25.8407 32.0193 25.8393 32.0186L21.1661 28.17L34.5875 13.5846C35.0172 13.1177 35.0561 12.4025 34.6798 11.8896C34.3032 11.3767 33.6207 11.2153 33.0624 11.5071L10.9879 23.0407L3.1572 20.7494L40.391 6.21311C40.7055 6.0902 40.9251 6.06445 41.0536 6.06445C41.1325 6.06445 41.2728 6.07407 41.3249 6.13964C41.3933 6.22513 41.4806 6.51661 41.3725 7.06352V7.06352Z" fill="#2352DE"/>
</g>
<defs>
<clipPath id="clip0_20948_41">
<rect width="44" height="45" fill="white"/>
</clipPath>
</defs>
</svg>
